<svg width="20" height="20" viewBox="0 0 20 20" fill="none" xmlns="http://www.w3.org/2000/svg">
<g clip-path="url(#clip0_1292_16677)">
<path d="M9.99935 18.3334C14.6017 18.3334 18.3327 14.6024 18.3327 10C18.3327 5.39765 14.6017 1.66669 9.99935 1.66669C5.39698 1.66669 1.66602 5.39765 1.66602 10C1.66602 14.6024 5.39698 18.3334 9.99935 18.3334Z" stroke="#142A1D" stroke-width="2"/>
<path d="M11.383 13.3176C11.3201 13.2547 11.3201 13.1289 11.2572 13.0031C11.2572 12.8773 11.1943 12.7516 11.1943 12.6258C11.0685 12.7516 10.9427 12.8144 10.817 12.9402C10.6912 13.066 10.5025 13.1289 10.3767 13.1918C10.188 13.2547 10.0622 13.3176 9.81067 13.3805C9.62199 13.4434 9.37042 13.4434 9.18174 13.4434C8.80438 13.4434 8.48992 13.3805 8.17545 13.2547C7.86098 13.1289 7.60941 13.0031 7.35784 12.8144C7.10627 12.6258 6.98048 12.3742 6.85469 12.1226C6.72891 11.871 6.66602 11.5566 6.66602 11.2421C6.66602 10.4874 6.98048 9.85847 7.54652 9.48111C8.11256 9.04086 8.99306 8.85218 10.1251 8.85218H11.1943V8.41193C11.1943 8.03457 11.0685 7.783 10.8799 7.59432C10.6283 7.40564 10.3138 7.27985 9.87356 7.27985C9.4962 7.27985 9.24463 7.34275 9.05595 7.53143C8.86727 7.72011 8.80438 7.90878 8.80438 8.16036H6.91759C6.91759 7.84589 6.98048 7.53143 7.10627 7.27985C7.23205 7.02828 7.42073 6.77671 7.7352 6.52514C7.98677 6.33646 8.30124 6.14778 8.67859 6.02199C9.05595 5.89621 9.4962 5.83331 9.99935 5.83331C10.4396 5.83331 10.817 5.89621 11.1943 6.02199C11.5717 6.14778 11.8861 6.27356 12.2006 6.52514C12.4522 6.71382 12.7038 7.02828 12.8295 7.34275C12.9553 7.65721 13.0811 8.03457 13.0811 8.47482V11.6195C13.0811 11.9968 13.0811 12.3113 13.144 12.5629C13.2069 12.8144 13.2698 13.066 13.3327 13.1918V13.3176H11.383ZM9.5591 11.9968C9.74778 11.9968 9.93646 11.9968 10.0622 11.9339C10.2509 11.871 10.3767 11.8082 10.5025 11.7453C10.6283 11.6824 10.7541 11.6195 10.817 11.4937C10.8799 11.4308 11.0056 11.305 11.0685 11.2421V9.98426H10.1251C9.81067 9.98426 9.5591 9.98426 9.37042 10.0471C9.18174 10.11 8.99306 10.1729 8.86727 10.2987C8.74149 10.4245 8.6157 10.4874 8.55281 10.6761C8.48992 10.8019 8.48992 10.9905 8.48992 11.1163C8.48992 11.3679 8.55281 11.5566 8.74149 11.7453C8.93017 11.9339 9.24463 11.9968 9.5591 11.9968Z" fill="#142A1D"/>
</g>
<defs>
<clipPath id="clip0_1292_16677">
<rect width="20" height="20" fill="white"/>
</clipPath>
</defs>
</svg>
