<svg width="25" height="24" viewBox="0 0 25 24" fill="none" xmlns="http://www.w3.org/2000/svg">
<g clip-path="url(#clip0_1208_28785)">
<path d="M4.89365 20.6981L4.79446 20.4686C4.5142 20.5898 4.36152 20.7855 4.28885 21.0059C4.22605 21.1963 4.22634 21.3995 4.22655 21.546C4.22656 21.5543 4.22657 21.5623 4.22657 21.5702C4.22657 21.7674 4.32471 21.959 4.43129 22.1053C4.54049 22.2553 4.68511 22.3944 4.8354 22.4913C5.66087 23.0972 6.73566 23.1719 7.68415 23.0076C9.35399 22.7563 10.5844 21.7474 11.2841 20.3334L11.285 20.3314C11.7904 19.2867 12.2108 18.1687 12.6264 17.0611C12.8415 16.5671 12.9906 16.0372 13.1259 15.5118C13.1559 15.3953 13.1852 15.2792 13.2143 15.1637C13.3012 14.8195 13.3868 14.4801 13.4869 14.1472L17.9445 14.7535L18.1601 14.7828L18.2189 14.5733L18.5525 13.3838L18.6303 13.1066L18.3449 13.0685L13.8579 12.4688L14.2593 10.4233L18.441 11.0233L18.6582 11.0545L18.7173 10.8432L19.0498 9.65367L19.1269 9.378L18.8434 9.33872L14.5575 8.74498C14.791 8.02359 14.9992 7.30433 15.2042 6.5957C15.2221 6.53389 15.24 6.47215 15.2578 6.4105C15.5067 5.55122 15.754 4.70833 16.0421 3.88535C16.2929 3.35441 16.6401 2.87239 17.0663 2.46553L17.0664 2.46545C17.3133 2.2296 17.5776 2.14331 17.8185 2.16544C18.0611 2.18773 18.3143 2.32328 18.5289 2.59706L18.5399 2.61114L18.5528 2.62351C18.6684 2.73402 18.7661 2.8452 18.8714 2.96522L18.874 2.96819C18.977 3.08566 19.0877 3.21176 19.2202 3.33851L19.2207 3.339C19.6118 3.71098 20.1618 3.84684 20.6216 3.51837L20.6362 3.50797L20.6491 3.4956C20.8256 3.32676 20.9037 3.11138 20.9402 2.91416C20.9755 2.72288 20.9755 2.5249 20.9755 2.37035V2.3616C20.9755 2.20046 20.8943 2.06711 20.8321 1.98425C20.7697 1.90117 20.698 1.83241 20.6549 1.79201C20.0958 1.17457 19.274 0.923302 18.4822 0.922107C16.6294 0.840239 15.395 1.69164 14.3628 3.00207L14.3627 3.00209C13.3318 4.31118 12.9033 5.78022 12.4912 7.20065C12.4045 7.40749 12.34 7.61244 12.2784 7.81774C12.2668 7.85663 12.2552 7.89547 12.2436 7.93439C12.2099 8.04796 12.1759 8.16228 12.138 8.28072L7.426 7.67224L7.17885 7.64033L7.14615 7.88738L6.97823 9.15596L6.94601 9.39937L7.1888 9.43597L11.6696 10.1116L11.2027 12.0851L6.84333 11.4805L6.59583 11.4461L6.56137 11.6936L6.39562 12.8842L6.3613 13.1307L6.60767 13.1661L10.81 13.7702V13.8461C10.4678 15.408 10.069 16.9179 9.65929 18.4687C9.57417 18.7909 9.48859 19.1149 9.40295 19.4414C9.16185 20.2841 8.76628 21.1017 8.07354 21.69C7.78041 21.8975 7.51177 21.9672 7.27938 21.9378C7.05104 21.9089 6.81909 21.7795 6.60383 21.5124C6.42259 21.1763 6.16186 20.8453 5.90062 20.5954L5.87747 20.5733L5.84948 20.5577C5.83636 20.5504 5.82245 20.5424 5.80779 20.5341C5.71095 20.4787 5.58156 20.4047 5.4307 20.3736C5.24075 20.3345 5.03809 20.3624 4.79376 20.4689L4.89365 20.6981ZM4.89365 20.6981C4.47636 20.8785 4.47647 21.2428 4.47657 21.5561L4.47657 21.5702C4.47657 21.8096 4.7279 22.127 4.97707 22.2852L6.39407 21.6504C6.22615 21.3329 5.97699 21.0144 5.72782 20.7761C5.71157 20.767 5.69561 20.758 5.67984 20.7491C5.46551 20.6276 5.28721 20.5266 4.89365 20.6981Z" fill="#142A1D" stroke="#142A1D" stroke-width="0.5"/>
</g>
<defs>
<clipPath id="clip0_1208_28785">
<rect width="24" height="24" fill="white" transform="translate(0.601562)"/>
</clipPath>
</defs>
</svg>
